<svg width="17" height="17" viewBox="0 0 17 17" fill="none" xmlns="http://www.w3.org/2000/svg">
<path fill-rule="evenodd" clip-rule="evenodd" d="M8.40018 0C6.11813 0 5.83392 0.0098001 4.9365 0.051801C1.88444 0.191804 0.190404 1.88444 0.0504011 4.93651C0.00980025 5.83393 0 6.11952 0 8.40017C0 10.6822 0.00980025 10.9678 0.0504011 11.8638C0.190404 14.9145 1.88444 16.6099 4.9365 16.7499C5.83392 16.7905 6.11813 16.8003 8.40018 16.8003C10.6822 16.8003 10.9678 16.7905 11.8652 16.7499C14.9117 16.6099 16.6127 14.9173 16.75 11.8638C16.7906 10.9678 16.8004 10.6822 16.8004 8.40017C16.8004 6.11952 16.7906 5.83393 16.75 4.93651C16.6127 1.88864 14.9173 0.190404 11.8652 0.051801C10.9678 0.0098001 10.6822 0 8.40018 0ZM11.7952 1.56383C10.909 1.52323 10.643 1.51483 8.40018 1.51483C6.15733 1.51483 5.89132 1.52183 5.0065 1.56243C2.72726 1.66604 1.66603 2.74546 1.56243 5.00651C1.52323 5.89132 1.51343 6.15732 1.51343 8.40017C1.51343 10.643 1.52323 10.909 1.56243 11.7938C1.66743 14.0493 2.72446 15.1329 5.0065 15.2379C5.89132 15.2785 6.15733 15.2869 8.40018 15.2869C10.6444 15.2869 10.909 15.2771 11.7952 15.2379C14.0745 15.1343 15.1343 14.0521 15.2393 11.7938C15.2785 10.909 15.2869 10.643 15.2869 8.40017C15.2869 6.15732 15.2785 5.89272 15.2393 5.00651C15.1343 2.74686 14.0731 1.66743 11.7952 1.56383Z" fill="#01C9CB"/>
<path fill-rule="evenodd" clip-rule="evenodd" d="M8.40018 4.08669C6.01873 4.08669 4.08669 6.01732 4.08669 8.40017C4.08669 10.783 6.01873 12.7137 8.40018 12.7137C10.7816 12.7137 12.7137 10.783 12.7137 8.40017C12.7137 6.01872 10.7816 4.08669 8.40018 4.08669ZM5.60012 8.40017C5.60012 9.9472 6.85314 11.2002 8.40018 11.2002C9.94581 11.2002 11.2016 9.9472 11.2016 8.40017C11.2016 6.85313 9.94581 5.60011 8.40018 5.60011C6.85314 5.60011 5.60012 6.85453 5.60012 8.40017Z" fill="#01C9CB"/>
<path d="M12.8831 2.90926C12.3273 2.90926 11.875 3.36007 11.875 3.91728C11.875 4.4731 12.3259 4.9253 12.8831 4.9253C13.4403 4.9253 13.8925 4.4745 13.8925 3.91728C13.8925 3.36007 13.4417 2.90926 12.8831 2.90926Z" fill="#01C9CB"/>
</svg>
