<svg width="16" height="20" viewBox="0 0 16 20" fill="none" xmlns="http://www.w3.org/2000/svg">
<path fill-rule="evenodd" clip-rule="evenodd" d="M0 7.12425C0 9.08608 0.738406 10.8311 2.32106 11.4815C2.58068 11.588 2.81292 11.4853 2.88825 11.1958C2.94055 10.9959 3.06445 10.4909 3.11924 10.2804C3.19519 9.99463 3.16593 9.89438 2.95611 9.645C2.50037 9.103 2.20837 8.40186 2.20837 7.40809C2.20837 4.52644 4.35074 1.94617 7.78813 1.94617C10.8314 1.94617 12.5031 3.81777 12.5031 6.31659C12.5031 9.6049 11.0568 12.3807 8.91068 12.3807C7.72462 12.3807 6.83741 11.3938 7.12194 10.1839C7.46251 8.73896 8.12184 7.17939 8.12184 6.13676C8.12184 5.20315 7.62376 4.42493 6.59398 4.42493C5.38239 4.42493 4.40802 5.68624 4.40802 7.37614C4.40802 8.45324 4.76975 9.1807 4.76975 9.1807C4.76975 9.1807 3.52953 14.4697 3.31224 15.3958C2.87953 17.2404 3.24749 19.5012 3.27862 19.7292C3.29668 19.8646 3.46914 19.8972 3.54759 19.795C3.65965 19.6478 5.10222 17.8545 5.59408 16.0631C5.7323 15.5556 6.39039 12.9283 6.39039 12.9283C6.78449 13.684 7.93506 14.3494 9.15847 14.3494C12.8019 14.3494 15.273 11.0072 15.273 6.53338C15.273 3.15046 12.4259 0 8.09881 0C2.71517 0 0 3.88482 0 7.12425Z" fill="#01C9CB"/>
</svg>
