<?xml version="1.0" encoding="utf-8"?>
<!-- Generator: Adobe Illustrator 16.2.0, SVG Export Plug-In . SVG Version: 6.00 Build 0)  -->
<!DOCTYPE svg PUBLIC "-//W3C//DTD SVG 1.1//EN" "http://www.w3.org/Graphics/SVG/1.1/DTD/svg11.dtd">
<svg version="1.1" id="Слой_1" xmlns="http://www.w3.org/2000/svg" xmlns:xlink="http://www.w3.org/1999/xlink" x="0px" y="0px"
	 width="561.003px" height="561.004px" viewBox="0.783 -0.002 561.003 561.004"
	 enable-background="new 0.783 -0.002 561.003 561.004" xml:space="preserve">
<g>
	<path fill="#30EDED" d="M281.285,558.175c-37.485,0-73.85-7.342-108.083-21.821c-33.065-13.985-62.761-34.007-88.262-59.508
		c-25.501-25.502-45.523-55.197-59.508-88.263C10.952,354.349,3.61,317.985,3.61,280.5s7.342-73.85,21.821-108.083
		c13.985-33.065,34.007-62.761,59.508-88.262c25.501-25.501,55.197-45.523,88.262-59.508C207.436,10.167,243.8,2.825,281.285,2.825
		s73.85,7.342,108.083,21.821c33.065,13.985,62.761,34.007,88.263,59.508c25.501,25.501,45.522,55.197,59.508,88.262
		c14.479,34.233,21.821,70.598,21.821,108.083s-7.342,73.85-21.821,108.083c-13.985,33.065-34.007,62.761-59.508,88.263
		c-25.502,25.501-55.197,45.522-88.263,59.508C355.135,550.833,318.771,558.175,281.285,558.175z M281.285,3.175
		C128.368,3.175,3.96,127.582,3.96,280.5c0,152.918,124.408,277.325,277.325,277.325c152.918,0,277.325-124.407,277.325-277.325
		C558.61,127.582,434.203,3.175,281.285,3.175z"/>
</g>
</svg>
