<?xml version="1.0" encoding="utf-8"?>
<!-- Generator: Adobe Illustrator 16.2.0, SVG Export Plug-In . SVG Version: 6.00 Build 0)  -->
<!DOCTYPE svg PUBLIC "-//W3C//DTD SVG 1.1//EN" "http://www.w3.org/Graphics/SVG/1.1/DTD/svg11.dtd">
<svg version="1.1" id="Слой_1" xmlns="http://www.w3.org/2000/svg" xmlns:xlink="http://www.w3.org/1999/xlink" x="0px" y="0px"
	 width="30px" height="31px" viewBox="0 0 30 31" enable-background="new 0 0 30 31" xml:space="preserve">
<g>
	<path fill="#A2B9E5" d="M15,30.062c-8.271,0-15-6.729-15-15c0-8.271,6.729-15,15-15c8.271,0,15,6.729,15,15
		C30,23.333,23.271,30.062,15,30.062z M15,2.062c-7.168,0-13,5.832-13,13c0,7.168,5.832,13,13,13c7.168,0,13-5.832,13-13
		C28,7.893,22.168,2.062,15,2.062z"/>
</g>
<path fill="#A2B9E5" d="M15.897,23.926h-3.326v-7.842H10.91v-2.703h1.662v-1.622c0-2.204,0.938-3.516,3.604-3.516h2.219v2.703
	h-1.387c-1.037,0-1.106,0.377-1.106,1.082l-0.005,1.353h2.514l-0.294,2.703h-2.22L15.897,23.926L15.897,23.926z"/>
</svg>
