<svg width="90" height="125" viewBox="0 0 90 125" fill="none" xmlns="http://www.w3.org/2000/svg">
<path d="M71.3872 12.1982C71.1837 12.1982 71.0107 12.1372 70.8683 12.0151C70.7462 11.8727 70.6851 11.6997 70.6851 11.4962V9.84793C70.6851 9.64444 70.7462 9.47147 70.8683 9.32903C71.0107 9.18659 71.1837 9.11537 71.3872 9.11537H73.3102C73.5136 9.11537 73.6866 9.18659 73.8291 9.32903C73.9715 9.47147 74.0427 9.64444 74.0427 9.84793V11.4962C74.0427 11.6997 73.9715 11.8727 73.8291 12.0151C73.6866 12.1372 73.5136 12.1982 73.3102 12.1982H71.3872ZM71.6314 31.0312C71.4279 31.0312 71.2549 30.9702 71.1125 30.8481C70.9904 30.7057 70.9293 30.5327 70.9293 30.3292V15.8611C70.9293 15.6576 70.9904 15.4948 71.1125 15.3727C71.2549 15.2302 71.4279 15.159 71.6314 15.159H73.0965C73.3 15.159 73.4628 15.2302 73.5849 15.3727C73.7273 15.4948 73.7985 15.6576 73.7985 15.8611V30.3292C73.7985 30.5327 73.7273 30.7057 73.5849 30.8481C73.4628 30.9702 73.3 31.0312 73.0965 31.0312H71.6314ZM85.4337 31.0312C82.2186 31.0312 80.611 29.2405 80.611 25.6591V17.6009H78.2302C78.0267 17.6009 77.8537 17.5399 77.7113 17.4178C77.5892 17.2753 77.5281 17.1024 77.5281 16.8989V15.8611C77.5281 15.6576 77.5892 15.4948 77.7113 15.3727C77.8537 15.2302 78.0267 15.159 78.2302 15.159H80.611V10.0616C80.611 9.85811 80.672 9.69531 80.7941 9.57322C80.9366 9.43078 81.1096 9.35955 81.313 9.35955H82.7476C82.9511 9.35955 83.1139 9.43078 83.236 9.57322C83.3785 9.69531 83.4497 9.85811 83.4497 10.0616V15.159H87.2346C87.4381 15.159 87.6009 15.2302 87.723 15.3727C87.8654 15.4948 87.9366 15.6576 87.9366 15.8611V16.8989C87.9366 17.1024 87.8654 17.2753 87.723 17.4178C87.6009 17.5399 87.4381 17.6009 87.2346 17.6009H83.4497V25.4454C83.4497 26.4629 83.6227 27.2362 83.9686 27.7652C84.3145 28.274 84.8843 28.5283 85.6779 28.5283H87.5398C87.7433 28.5283 87.9061 28.5995 88.0282 28.742C88.1707 28.8641 88.2419 29.0269 88.2419 29.2304V30.3292C88.2419 30.5327 88.1707 30.7057 88.0282 30.8481C87.9061 30.9702 87.7433 31.0312 87.5398 31.0312H85.4337Z" fill="#A2B9E5"/>
<path d="M44.6861 61.3423C59.7077 68.2026 67.7508 78.9661 67.7508 95.6437C67.7508 114.332 53.084 124.031 32.7397 124.031C20.202 124.031 10.503 120.837 1.51366 116.224C0.330853 115.633 -0.37883 114.095 0.212573 112.794L4.9438 100.375C5.29864 99.3104 6.36316 98.7189 7.42769 98.7189C7.78253 98.7189 8.13737 98.8372 8.61049 98.9555C16.6536 102.977 25.0515 105.934 32.9763 105.934C43.385 105.934 49.1807 102.859 49.1807 95.6437C49.1807 83.2242 40.9011 79.9123 32.7397 75.536C24.6967 71.2779 16.8901 66.5466 16.8901 54.0089C16.8901 45.7293 22.5676 37.9227 36.7613 37.9227C43.0301 37.9227 49.1807 39.2238 56.041 42.1808L58.7615 34.8474C53.084 32.2453 47.6431 30.7076 36.7613 30.7076C21.5031 30.7076 8.84705 38.6324 8.84705 54.1272C8.84705 67.0198 15.589 74.9446 24.4601 79.6758C25.4063 80.1489 25.8795 81.0951 25.8795 82.0414C25.8795 83.3425 24.8149 84.7618 23.159 84.7618C22.8042 84.7618 22.331 84.6436 21.9762 84.407C9.7933 78.0199 3.16959 67.8477 3.16959 54.0089C3.16959 34.7292 19.0192 25.1484 36.4064 25.1484C49.1807 25.1484 55.8044 27.2775 62.9013 30.9442C64.3206 31.6539 64.7938 32.955 64.2024 34.256L59.7077 46.7938C59.3529 47.8583 58.2883 48.568 57.2238 48.568C56.869 48.568 56.5141 48.4497 56.1593 48.3314C49.299 45.0196 43.0301 43.3636 36.4064 43.3636C26.8257 43.3636 21.9762 47.2669 21.9762 54.1272C21.9762 63.9445 28.2451 67.2563 35.2236 71.0413C44.0947 75.8908 54.2668 80.622 54.2668 95.8802C54.2668 101.676 51.5463 111.493 32.7397 111.493C25.6429 111.493 17.5998 109.482 8.72877 105.343L6.00832 112.676C14.9976 116.934 23.2773 118.827 32.7397 118.827C47.7614 118.827 62.3099 113.031 62.3099 95.8802C62.3099 82.0414 56.1593 72.6972 42.3205 66.4284C41.2559 65.9552 40.6645 65.009 40.6645 64.0627C40.9011 61.8154 42.7936 60.396 44.6861 61.3423Z" fill="url(#paint0_linear)"/>
<path d="M44.1394 61.0875C59.3229 67.788 67.5409 78.4946 67.7487 95.2393L62.2831 95.5447C62.1107 81.6501 55.8124 72.3451 41.8252 66.2235C40.7493 65.7618 40.1431 64.8191 40.1313 63.869C40.3411 61.6097 42.2255 60.161 44.1394 61.0875Z" fill="url(#paint1_linear)"/>
<path d="M8.84264 54.3666C9.01843 67.3282 15.8679 75.204 24.8026 79.8403C25.7553 80.3031 26.2412 81.248 26.2541 82.1993C26.2719 83.5073 25.2268 84.9487 23.571 84.9712C23.2162 84.976 22.7415 84.8635 22.3835 84.6305C10.1146 78.3744 3.35276 68.2376 3.16406 54.3247L8.84264 54.3666Z" fill="url(#paint2_linear)"/>
<defs>
<linearGradient id="paint0_linear" x1="-54.9459" y1="30.2776" x2="-36.1363" y2="141.556" gradientUnits="userSpaceOnUse">
<stop stop-color="#09CEC6"/>
<stop offset="1" stop-color="#00DFEE"/>
</linearGradient>
<linearGradient id="paint1_linear" x1="50.3665" y1="62.5404" x2="64.1184" y2="85.4032" gradientUnits="userSpaceOnUse">
<stop offset="0.489583" stop-color="#0C1B2E"/>
<stop offset="1" stop-color="#01DBE5"/>
</linearGradient>
<linearGradient id="paint2_linear" x1="4.57995" y1="56.4349" x2="19.0786" y2="86.1954" gradientUnits="userSpaceOnUse">
<stop offset="0.128832" stop-color="#06D2D0"/>
<stop offset="0.541667" stop-color="#0C1B2F"/>
</linearGradient>
</defs>
</svg>
