<?xml version="1.0" encoding="utf-8"?>
<!-- Generator: Adobe Illustrator 16.2.0, SVG Export Plug-In . SVG Version: 6.00 Build 0)  -->
<!DOCTYPE svg PUBLIC "-//W3C//DTD SVG 1.1//EN" "http://www.w3.org/Graphics/SVG/1.1/DTD/svg11.dtd">
<svg version="1.1" id="Слой_1" xmlns="http://www.w3.org/2000/svg" xmlns:xlink="http://www.w3.org/1999/xlink" x="0px" y="0px"
	 width="30px" height="30px" viewBox="0 0 30 30" enable-background="new 0 0 30 30" xml:space="preserve">
<g>
	<path fill="#A2B9E5" d="M15,30C6.729,30,0,23.271,0,15C0,6.729,6.729,0,15,0c8.271,0,15,6.729,15,15C30,23.271,23.271,30,15,30z
		 M15,2C7.832,2,2,7.832,2,15c0,7.168,5.832,13,13,13c7.168,0,13-5.832,13-13C28,7.832,22.168,2,15,2z"/>
</g>
<path fill="#A2B9E5" d="M8.18,13.86c0,1.751,0.659,3.31,2.072,3.89c0.232,0.096,0.439,0.004,0.506-0.254
	c0.047-0.18,0.157-0.63,0.207-0.818c0.068-0.254,0.042-0.344-0.146-0.566c-0.407-0.484-0.667-1.11-0.667-1.998
	c0-2.573,1.913-4.876,4.982-4.876c2.717,0,4.209,1.671,4.209,3.902c0,2.936-1.291,5.414-3.207,5.414
	c-1.059,0-1.852-0.881-1.597-1.961c0.304-1.29,0.893-2.682,0.893-3.613c0-0.833-0.445-1.528-1.364-1.528
	c-1.082,0-1.952,1.126-1.952,2.635c0,0.961,0.323,1.611,0.323,1.611s-1.107,4.722-1.301,5.55c-0.387,1.646-0.058,3.664-0.03,3.869
	c0.016,0.12,0.17,0.149,0.24,0.059c0.1-0.132,1.388-1.732,1.827-3.332c0.124-0.453,0.711-2.799,0.711-2.799
	c0.352,0.674,1.379,1.268,2.472,1.268c3.252,0,5.459-2.983,5.459-6.978c0-3.021-2.543-5.833-6.406-5.833
	C10.604,7.5,8.18,10.968,8.18,13.86z"/>
</svg>
