<?xml version="1.0" encoding="utf-8"?>
<!-- Generator: Adobe Illustrator 16.2.0, SVG Export Plug-In . SVG Version: 6.00 Build 0)  -->
<!DOCTYPE svg PUBLIC "-//W3C//DTD SVG 1.1//EN" "http://www.w3.org/Graphics/SVG/1.1/DTD/svg11.dtd">
<svg version="1.1" id="Слой_1" xmlns="http://www.w3.org/2000/svg" xmlns:xlink="http://www.w3.org/1999/xlink" x="0px" y="0px"
	 width="86px" height="85px" viewBox="0 0 86 85" enable-background="new 0 0 86 85" xml:space="preserve">
<g>
	<circle fill="#18273B" cx="42.955" cy="42.198" r="41.711"/>
	<path fill="#30EDED" d="M42.955,84.409c-23.275,0-42.211-18.936-42.211-42.211c0-23.275,18.936-42.211,42.211-42.211
		c23.276,0,42.211,18.936,42.211,42.211C85.166,65.474,66.23,84.409,42.955,84.409z M42.955,0.987
		c-22.724,0-41.211,18.487-41.211,41.211c0,22.724,18.487,41.211,41.211,41.211c22.724,0,41.211-18.487,41.211-41.211
		C84.166,19.474,65.679,0.987,42.955,0.987z"/>
</g>
<path fill="#0D8585" fill-opacity="0.79" d="M55.217,38.312l-2.958-1.708c-0.39-0.225-0.878,0.057-0.878,0.508v1.056h-5.536v-5.945
	L42.1,28.478H29.234v12.539l3.734,4.072h5.956v5.537h-1.056c-0.451,0-0.732,0.487-0.507,0.877l1.708,2.959
	c0.243,0.422,0.851,0.422,1.094,0l1.708-2.959c0.226-0.39-0.056-0.877-0.507-0.877h-1.056v-5.537h5.537v-5.537h5.536v1.056
	c0,0.451,0.488,0.732,0.879,0.507l2.959-1.708C55.639,39.163,55.639,38.555,55.217,38.312z"/>
<path fill="#30EDED" d="M53.743,25.018h-27.97v27.258l6.613,7.347h27.992v-27.97L53.743,25.018z M58.016,31.247H32.981l-4.845-4.845
	H53.17L58.016,31.247z M27.158,27.38l4.845,4.845v24.902l-4.845-5.384V27.38z M33.386,58.238V32.63h25.608v20.071h-2.77v1.385h2.77
	v1.383h-4.152v1.385h4.152v1.385H33.386z"/>
</svg>
