<?xml version="1.0" encoding="utf-8"?>
<!-- Generator: Adobe Illustrator 16.2.0, SVG Export Plug-In . SVG Version: 6.00 Build 0)  -->
<!DOCTYPE svg PUBLIC "-//W3C//DTD SVG 1.1//EN" "http://www.w3.org/Graphics/SVG/1.1/DTD/svg11.dtd">
<svg version="1.1" id="Слой_1" xmlns="http://www.w3.org/2000/svg" xmlns:xlink="http://www.w3.org/1999/xlink" x="0px" y="0px"
	 width="87px" height="86px" viewBox="0 0 87 86" enable-background="new 0 0 87 86" xml:space="preserve">
<g>
	<circle fill="#18273B" cx="43.662" cy="42.979" r="42.435"/>
	<path fill="#30EDED" d="M43.662,85.914c-23.674,0-42.935-19.261-42.935-42.935S19.988,0.044,43.662,0.044
		c23.675,0,42.936,19.26,42.936,42.935S67.337,85.914,43.662,85.914z M43.662,1.044c-23.123,0-41.935,18.812-41.935,41.935
		c0,23.124,18.812,41.935,41.935,41.935c23.123,0,41.936-18.812,41.936-41.935C85.598,19.856,66.785,1.044,43.662,1.044z"/>
</g>
<path fill="#30EDED" d="M60.171,27.369H28.114c-1.153,0-2.091,0.911-2.091,2.031v21.663c0,1.12,0.938,2.031,2.091,2.031h11.847
	v2.031c0,0.373-0.313,0.677-0.697,0.677h-2.09c-1.153,0-2.091,0.911-2.091,2.031v2.03h18.119v-2.03c0-1.12-0.938-2.031-2.091-2.031
	h-2.09c-0.385,0-0.697-0.304-0.697-0.677v-2.031h11.847c1.153,0,2.091-0.911,2.091-2.031V29.399
	C62.262,28.28,61.324,27.369,60.171,27.369z M28.114,28.723h32.057c0.384,0,0.697,0.303,0.697,0.677v15.571H27.417V29.399
	C27.417,29.026,27.73,28.723,28.114,28.723z M50.414,57.156h0.697c0.385,0,0.697,0.303,0.697,0.677v0.677H36.477v-0.677
	c0-0.374,0.313-0.677,0.697-0.677H50.414z M47.059,55.802h-5.833c0.079-0.212,0.129-0.438,0.129-0.677v-2.031h5.575v2.031
	C46.93,55.363,46.98,55.59,47.059,55.802z M60.171,51.74H28.114c-0.384,0-0.697-0.304-0.697-0.678v-4.738h33.451v4.738
	C60.868,51.437,60.555,51.74,60.171,51.74z"/>
<path fill="#0D8585" fill-opacity="0.8" d="M44.147,47.678c-0.77,0-1.394,0.607-1.394,1.354s0.624,1.354,1.394,1.354
	c0.771,0,1.394-0.607,1.394-1.354S44.918,47.678,44.147,47.678z"/>
<path fill="#30EDED" d="M59.475,34.675v-3.922c0-0.374-0.313-0.677-0.697-0.677H54.74c-0.311,0-0.467,0.365-0.247,0.578l4.386,4.26
	C59.099,35.127,59.475,34.977,59.475,34.675z"/>
<path fill="#0D8585" fill-opacity="0.78" d="M37.933,38.179l0.612-2.969h1.203l-1.189,4.663h-1.043l-0.883-2.935l-0.884,2.935
	h-1.039L33.52,35.21h1.203l0.607,2.965l0.854-2.965h0.9L37.933,38.179z M44.952,38.179l0.612-2.969h1.202l-1.189,4.663h-1.043
	l-0.883-2.935l-0.883,2.935h-1.039l-1.19-4.663h1.203l0.607,2.965l0.854-2.965h0.901L44.952,38.179z M51.972,38.179l0.612-2.969
	h1.202l-1.189,4.663h-1.043l-0.884-2.935l-0.883,2.935h-1.039l-1.189-4.663h1.203l0.607,2.965l0.854-2.965h0.9L51.972,38.179z"/>
</svg>
