<?xml version="1.0" encoding="utf-8"?>
<!-- Generator: Adobe Illustrator 16.2.0, SVG Export Plug-In . SVG Version: 6.00 Build 0)  -->
<!DOCTYPE svg PUBLIC "-//W3C//DTD SVG 1.1//EN" "http://www.w3.org/Graphics/SVG/1.1/DTD/svg11.dtd">
<svg version="1.1" id="Слой_1" xmlns="http://www.w3.org/2000/svg" xmlns:xlink="http://www.w3.org/1999/xlink" x="0px" y="0px"
	 width="87px" height="87px" viewBox="0 0 87 87" enable-background="new 0 0 87 87" xml:space="preserve">
<g>
	<circle fill="#18273B" cx="43.49" cy="43.5" r="42.416"/>
	<path fill="#30EDED" d="M43.49,86.416c-23.664,0-42.916-19.252-42.916-42.916c0-23.664,19.252-42.916,42.916-42.916
		S86.406,19.836,86.406,43.5C86.406,67.164,67.154,86.416,43.49,86.416z M43.49,1.584C20.377,1.584,1.574,20.388,1.574,43.5
		c0,23.112,18.803,41.916,41.916,41.916c23.112,0,41.916-18.804,41.916-41.916C85.406,20.388,66.603,1.584,43.49,1.584z"/>
</g>
<path fill="#30EDED" d="M26.676,23.795c-0.993,0-1.801,0.818-1.801,1.824c0,1.005,0.808,1.824,1.801,1.824
	c0.992,0,1.8-0.819,1.8-1.824C28.476,24.614,27.668,23.795,26.676,23.795z M26.676,26.228c-0.331,0-0.601-0.273-0.601-0.608
	s0.27-0.608,0.601-0.608s0.6,0.273,0.6,0.608S27.006,26.228,26.676,26.228z M59.087,43.083v-6.958l-2.51-0.848
	c-0.177-0.52-0.393-1.042-0.644-1.559l1.187-2.404l-4.856-4.919l-2.373,1.202c-0.51-0.255-1.025-0.474-1.539-0.652l-0.836-2.542
	h-6.868l-0.836,2.542c-0.513,0.179-1.029,0.397-1.539,0.652l-2.373-1.202l-4.856,4.919l1.187,2.404
	c-0.251,0.517-0.468,1.039-0.644,1.559l-2.51,0.848v6.957l2.51,0.847c0.175,0.517,0.388,1.035,0.638,1.546l-0.772,1.425h-3.576
	v12.161h4.202v-1.824h4.553l1.801,1.824h3.25v0.607c0,1.342,1.077,2.433,2.401,2.433c1.324,0,2.4-1.091,2.4-2.433v-0.607h4.202
	c0.993,0,1.8-0.818,1.8-1.824c0-0.469-0.18-0.893-0.467-1.217c0.287-0.322,0.467-0.746,0.467-1.215s-0.18-0.893-0.467-1.217
	c0.229-0.258,0.385-0.58,0.439-0.938l4.662-4.76l-1.186-2.402c0.251-0.518,0.467-1.039,0.644-1.559L59.087,43.083z M30.877,57.846
	h-1.801v-9.729h1.801V57.846z M38.928,57.846l-1.8-1.824h-5.05v-6.688h6.25l2.401-2.433h7.554c0.33,0,0.6,0.272,0.6,0.608
	s-0.27,0.607-0.6,0.607h-6.25l-2.577,2.611l0.849,0.859l1.376-1.395v7.652H38.928z M51.285,54.807c0,0.335-0.27,0.607-0.601,0.607
	h-4.802c-0.331,0-0.601-0.272-0.601-0.607c0-0.336,0.27-0.609,0.601-0.609h4.802C51.016,54.197,51.285,54.471,51.285,54.807z
	 M45.883,52.982c-0.331,0-0.601-0.273-0.601-0.608s0.27-0.608,0.601-0.608h4.802c0.331,0,0.601,0.273,0.601,0.608
	s-0.27,0.608-0.601,0.608H45.883z M50.685,50.55h-4.802c-0.331,0-0.601-0.272-0.601-0.608s0.27-0.607,0.601-0.607h4.802
	c0.331,0,0.601,0.271,0.601,0.607S51.016,50.55,50.685,50.55z M45.531,39.605l0.951-0.965v-2.684c0.662,0,1.201,0.545,1.201,1.216
	v2.789l-2.05,2.076h-3.104l-2.049-2.076v-2.789c0-0.67,0.538-1.216,1.2-1.216v2.684l0.952,0.965H45.531z M42.881,43.253h2.401v2.433
	h-2.401V43.253z M46.482,42.897l2.4-2.433v-3.292c0-1.341-1.076-2.432-2.4-2.432h-1.2v3.396l-0.249,0.252H43.13l-0.249-0.252V34.74
	h-1.201c-1.324,0-2.401,1.091-2.401,2.432v3.292l2.401,2.433v2.789h-1.449l-0.038,0.038c-2.049-1.34-3.315-3.636-3.315-6.119
	c0-4.024,3.231-7.297,7.203-7.297c3.971,0,7.202,3.273,7.202,7.297c0,2.464-1.216,4.721-3.249,6.081h-1.553V42.897z M50.055,47.221
	c-0.068-0.432-0.285-0.809-0.598-1.082c1.913-1.609,3.027-3.978,3.027-6.534c0-4.694-3.77-8.513-8.402-8.513
	c-4.634,0-8.403,3.819-8.403,8.513c0,2.809,1.379,5.424,3.642,7.004l-0.865,0.875c-2.492-1.828-3.977-4.756-3.977-7.879
	c0-5.364,4.308-9.729,9.604-9.729c5.295,0,9.604,4.365,9.604,9.729C53.686,42.61,52.344,45.383,50.055,47.221z M44.082,60.887
	c-0.663,0-1.201-0.545-1.201-1.217V49.334h1.31c-0.066,0.19-0.109,0.394-0.109,0.607c0,0.469,0.18,0.893,0.468,1.217
	c-0.288,0.323-0.468,0.747-0.468,1.216s0.18,0.893,0.468,1.216c-0.288,0.324-0.468,0.748-0.468,1.217s0.18,0.893,0.468,1.215
	c-0.288,0.324-0.468,0.748-0.468,1.217c0,0.791,0.503,1.461,1.2,1.713v0.719C45.282,60.342,44.744,60.887,44.082,60.887z
	 M50.685,57.846h-4.802c-0.331,0-0.601-0.271-0.601-0.607s0.27-0.607,0.601-0.607h4.802c0.331,0,0.601,0.271,0.601,0.607
	S51.016,57.846,50.685,57.846z M55.66,47.656l-3.547,3.62c-0.03-0.04-0.063-0.081-0.096-0.118c0.287-0.324,0.467-0.748,0.467-1.217
	c0-0.948-0.721-1.721-1.635-1.807c2.547-2.068,4.035-5.17,4.035-8.53c0-6.035-4.846-10.945-10.803-10.945
	c-5.958,0-10.804,4.91-10.804,10.945c0,3.319,1.49,6.442,4.019,8.512h-5.134l1.42-2.621l-0.148-0.289
	c-0.33-0.643-0.6-1.296-0.801-1.94l-0.092-0.295l-2.265-0.765v-5.204l2.265-0.765l0.092-0.296c0.2-0.644,0.47-1.297,0.8-1.939
	l0.142-0.276l-1.072-2.171l3.632-3.68l2.143,1.085l0.272-0.143c0.635-0.335,1.279-0.608,1.915-0.812l0.292-0.093l0.755-2.295h5.137
	l0.754,2.294l0.293,0.093c0.636,0.203,1.28,0.477,1.914,0.812l0.272,0.143l2.144-1.085l3.632,3.679l-1.071,2.171l0.141,0.275
	c0.331,0.644,0.6,1.296,0.801,1.94l0.092,0.296l2.266,0.766v5.204l-2.266,0.765l-0.092,0.295c-0.201,0.645-0.471,1.297-0.801,1.94
	l-0.141,0.275L55.66,47.656z M26.075,30.484v-1.216h1.201v1.216H26.075z M26.075,33.524v-1.216h1.201v1.216H26.075z M27.276,35.348
	v1.216h-1.201v-1.216H27.276z"/>
<path fill="#30EDED" d="M60.287,58.455c-0.992,0-1.801,0.818-1.801,1.824c0,1.005,0.809,1.823,1.801,1.823s1.801-0.818,1.801-1.823
	C62.088,59.273,61.279,58.455,60.287,58.455z M59.688,60.279c0,0.335,0.27,0.607,0.6,0.607s0.6-0.272,0.6-0.607
	c0-0.336-0.27-0.609-0.6-0.609S59.688,59.943,59.688,60.279z"/>
<path fill="#30EDED" d="M59.688,55.414h1.199v1.217h-1.199V55.414z"/>
<path fill="#30EDED" d="M59.688,52.374h1.199v1.216h-1.199V52.374z"/>
<path fill="#30EDED" d="M60.887,50.55h-1.199v-1.216h1.199V50.55z"/>
</svg>
