<svg width="78" height="78" viewBox="0 0 78 78" fill="none" xmlns="http://www.w3.org/2000/svg">
<path d="M35.0695 52.3467C41.1939 52.3467 46.9717 49.9779 51.3051 45.6445C55.6384 41.3112 58.0073 35.5334 58.0073 29.409C58.0073 23.2845 55.6384 17.5067 51.3051 13.1734C46.9717 8.84008 41.1939 6.47119 35.0695 6.47119C28.9451 6.47119 23.1673 8.84008 18.8339 13.1734C9.87839 22.129 9.87839 36.689 18.8339 45.6445C23.1673 49.9779 28.8873 52.3467 35.0695 52.3467ZM35.0695 13.1734C39.4028 13.1734 43.5051 14.849 46.5673 17.9112C52.9228 24.2667 52.9228 34.5512 46.5673 40.9067C43.5051 43.969 39.4028 45.6445 35.0695 45.6445C30.7362 45.6445 26.6339 43.969 23.5717 40.9067C20.5095 37.8445 18.8339 33.7423 18.8339 29.409C18.8339 25.0756 20.5095 20.9734 23.5717 17.9112C26.6339 14.849 30.6784 13.1734 35.0695 13.1734ZM45.2962 32.4712V26.289H38.1317V19.1823H31.9495V26.3467H24.7851V32.529H31.9495V39.6934H38.1317V32.4712H45.2962ZM74.0117 62.0534L56.7939 44.8356C55.9273 46.049 54.9451 47.2045 53.9051 48.2445C52.8651 49.2845 51.7095 50.2668 50.4962 51.1334L67.7139 68.3512L74.0117 62.0534Z" fill="white" fill-opacity="0.71"/>
</svg>
