<?xml version="1.0" encoding="utf-8"?>
<!-- Generator: Adobe Illustrator 16.2.0, SVG Export Plug-In . SVG Version: 6.00 Build 0)  -->
<!DOCTYPE svg PUBLIC "-//W3C//DTD SVG 1.1//EN" "http://www.w3.org/Graphics/SVG/1.1/DTD/svg11.dtd">
<svg version="1.1" id="Слой_1" xmlns="http://www.w3.org/2000/svg" xmlns:xlink="http://www.w3.org/1999/xlink" x="0px" y="0px"
	 width="14px" height="25px" viewBox="0 0 14 25" enable-background="new 0 0 14 25" xml:space="preserve">
<path fill="#0F1D2F" d="M13.152,6.86V18.14c0,3.394-2.768,6.152-6.152,6.152c-3.394,0-6.152-2.759-6.152-6.152V6.86
	c0-3.394,2.758-6.152,6.152-6.152C10.385,0.708,13.152,3.467,13.152,6.86z"/>
<g>
	<path fill="#79859C" d="M7,25c-3.86,0-7-3.141-7-7V7c0-3.86,3.14-7,7-7c3.859,0,7,3.14,7,7v11C14,21.859,10.859,25,7,25z M7,1
		C3.691,1,1,3.691,1,7v11c0,3.309,2.691,6,6,6c3.309,0,6-2.691,6-6V7C13,3.691,10.309,1,7,1z"/>
</g>
<g>
	<path fill="#01C9CB" d="M7,21c-0.552,0-1-0.447-1-1v-4c0-0.553,0.448-1,1-1c0.553,0,1,0.447,1,1v4C8,20.553,7.553,21,7,21z"/>
</g>
</svg>
